<?xml version="1.0" encoding="UTF-8"?>
<svg id="_レイヤー_2" data-name="レイヤー 2" xmlns="http://www.w3.org/2000/svg" viewBox="0 0 101.58 124.38">
  <defs>
    <style>
      .cls-1 {
        fill: #f5ee47;
      }

      .cls-2 {
        fill: #6d9fd9;
      }

      .cls-3 {
        fill: #ac7a35;
      }

      .cls-4 {
        fill: #302c2b;
      }

      .cls-5 {
        fill: #5589c8;
      }

      .cls-6 {
        fill: #e7a142;
      }

      .cls-7 {
        fill: #cdcfd1;
      }

      .cls-8 {
        fill: #ea5045;
      }

      .cls-9 {
        fill: #ecebed;
      }
    </style>
  </defs>
  <g id="_レイヤー_1-2" data-name="レイヤー 1">
    <g id="_生成オブジェクト" data-name="生成オブジェクト">
      <path class="cls-4" d="M50.13.1c.53.04,1.23.14,1.78.2.39.04.91.15,1.34.2.31.04.78.14,1.11.2.24.04.62.14.89.2s.62.14.89.2c.14.04.45.14.67.2.3.08.62.13.89.2.2.06.46.14.67.2.02,0,.16.11.45.2,9.11,3.22,16.24,9.73,20.04,17.93.06.14.09.32.22.61.06.14.1.33.22.61.07.15.05.41.22.81.07.2.16.42.22.61.09.25.12.5.22.81.1.29-.02.47.22,1.02s.07.64.67,1.22c.92,1.85.22.43,1.78,1.02.31.12.56.16.67.2,1.37.58,3.54,2.09,4.01,3.46.03.1.21.76.22.81.41,2.36.32,11.76,0,14.26,0,.04-.17.59-.22.81-.69,1.76-2.54,3.11-4.23,4.07-.05.03-.26-.03-.67.2-.12.07-.54-.11-1.11.2-1.18.65-1.84,2.21-3.34,2.65-.25.07-.83.16-1.11.2-.62.1-1.54-.03-2.23,0-.15-.01-.9-.4-1.34-.2-.01,0-.11-.43-.22,0-.4.11-.2.71-.22,1.02-.28.88-.03,1.59-.22,2.24-.03.1-.15.37-.22.61-.38.98-2.34,2.96-2.23,3.77.05.33,2.91,5.01,3.34,6.01.08.2.15.41.22.61s.15.41.22.61.16.42.22.61c.07.2.17.43.22.61.07.23.18.48.22.61.08.26.14.54.22.81.07.2.17.44.22.61.08.25.14.55.22.81.09.32.12.66.22,1.02.07.26.16.57.22.81.08.33.15.69.22,1.02.08.36.12.64.22,1.02.12.44-.04.73.22,1.43.07.19-.13.71.11.81,1.14.24,5.41-.32,6.12,0,.21.1.15.87.56,1.02.75.27,3.38-.49,3.9.81.09.22-.06.72,0,1.02,0,.03-.51.22-.11.61,2.14-.29,1.6.18,2.34.81,1.12.97,4.28.06,6.01.41.85.17,2.7,1.86,2.9,2.65.81,3.38-1.03,13.6.22,16.1.14.27.21.19.22.2.36.45,2.91,2.68,2.9,3.36,0,.26-2.82,3.39-3.12,4.38-1.02,3.44.6,9.26-.22,12.43-.18.7-1.9,2.09-2.67,2.24h-33.18c-.57-.12-2.31-1.72-2.45-2.24-.22-.83.4-4.8-.33-5.09h-26.72c-.23.09-.04.52-.11.61-.33.45-.17.75-.22.81-.47.62-1.49,1.37-2.23,1.63-.1.03-.7.16-.89.2-.23.05-.85.2-.89.2-4.58.55-16.58.37-21.38,0-.37-.05-.99-.12-1.34-.2-.09-.02-.5-.15-.67-.2-.2-.06-.53-.15-.67-.2-1.35-.55-3.76-2.35-4.23-3.67-.03-.08-.22-.77-.22-.81-.04-.3-.01-.71,0-1.02,0-.06.19-1.1.22-1.22.01-.04.18-.51.22-.61.85-2.09,3.22-3.63,5.34-4.48.19-.06.5-.16.67-.2.28-.07.6-.14.89-.2.35-.08.74-.12,1.11-.2s.72-.12,1.11-.2c.52-.11,1.8.3,1.78-.51-1.69-1.86-4.71-4.99-5.57-7.23-.07-.18-.17-.44-.22-.61-.09-.27-.15-.71-.22-1.02-.11-.49-.2-1.52-.22-2.04-.02-.47-.02-.96,0-1.43.02-.54.12-1.5.22-2.04.05-.28.14-.75.22-1.02s.14-.58.22-.81c.06-.18.15-.44.22-.61.52-1.26,2.54-3.72,3.56-4.79,1.38-1.45,7.78-5.61,8.02-6.21.36-.91.08-1.44.22-2.24.12-.63.11-1.24.22-1.83.1-.49.12-.97.22-1.43.07-.33.15-.69.22-1.02.06-.25.16-.54.22-.81.06-.25.15-.55.22-.81.06-.25.15-.55.22-.81s.15-.56.22-.81c.04-.12.15-.39.22-.61.06-.18.15-.41.22-.61s.15-.41.22-.61.15-.41.22-.61c0-.02.11-.12.22-.41.45-1.01,2.84-4.85,2.67-5.3-.21-.57-1.99-2.24-2.45-3.26-.07-.17-.15-.42-.22-.61s-.11-.49-.22-.81-.06-.85-.22-1.43c-.08-.48.23-1.29-.22-1.63-.11-.43-.21,0-.22,0-.45-.24-.84.2-.89.2-.9.01-2.82.15-3.56,0-1.89-.38-2.49-2.46-4.23-3.06-.48-.32-.83-.16-.89-.2-1.71-1.2-3.78-2.07-4.45-4.28-.05-.15-.2-.85-.22-1.02-.34-2.13-.33-10.9,0-13.04.03-.17.17-.85.22-1.02.46-1.56,2.26-3.1,3.79-3.87.06-.03.3-.03.67-.2.16-.07.53.06,1.11-.2.46-.21.16.15.67-.41.39-.43.13-.62.22-.81.31-.63.36-.54.67-1.43.2-.43.15-.63.22-.81.17-.41.14-.62.22-.81.15-.39.15-.63.22-.81.08-.21.15-.42.22-.61.09-.22.14-.42.22-.61,0-.02.12-.18.22-.41.12-.27.16-.48.22-.61,3.76-7.98,10.51-13.71,19.15-17.11.29-.1.42-.2.45-.2.21-.07.46-.14.67-.2s.47-.15.67-.2c.22-.06.48-.15.67-.2.27-.07.6-.14.89-.2s.62-.15.89-.2c.28-.06.64-.16.89-.2.35-.06.77-.15,1.11-.2.41-.07.93-.15,1.34-.2.57-.05,1.26-.17,1.78-.2,2.13-.13,5.23-.14,7.35,0Z"/>
      <g>
        <path class="cls-9" d="M48.8,6.82c.52.04,1.24.14,1.78.2.4.05.93.14,1.34.2.16.03.62.15.89.2s.63.14.89.2c.15.04.46.14.67.2s.47.14.67.2c.22.07.47.13.67.2.29.1.52.15.67.2,1.49.57,9.95,5.29,9.8,6.62-2.65,1.75-5.27,4.82-7.91,6.42-1.09.66-1.22.94-2.56,1.02-.05,0-.43-.17-.89-.2-.32-.04-.74-.15-1.11-.2-.34-.05-.71-.16-1.11-.2-.5-.05-1.02-.16-1.56-.2-.83-.07-1.6-.17-2.45-.2-1.65-.09-2.81-.08-4.45,0-.83.03-1.65.15-2.45.2-.53.05-1.06.15-1.56.2-.47.04-.92.16-1.34.2-.4.04-.78.16-1.11.2-.47.03-.85.21-.89.2-.21-.03-.5.05-.67,0-.61-.17-9.42-7.27-9.35-7.84,2.76-2.46,6.21-4.86,9.8-6.21.18-.07.43-.12.67-.2.3-.1.42-.2.45-.2.26-.08.59-.12.89-.2.23-.06.57-.18.67-.2.27-.06.64-.15.89-.2.33-.06.8-.16,1.11-.2.36-.05.92-.18,1.11-.2.62-.07,1.41-.17,2-.2,1.33-.08,3.12-.07,4.45,0Z"/>
        <path class="cls-9" d="M24.52,26.38c-.69-2.79-3.04-2.69-3.56-3.46-.02-.04.01-.13,0-.2.36-.02.2-.38.22-.61,0-.02.11.03.22-.41.56-1.25,1.39-2.48,2.12-3.67l8.13,6.62-6.79,5.81c-.22-1.4.01-2.67-.33-4.07Z"/>
        <path class="cls-9" d="M71.29,21.29c.07.26.22.58.22.61.03.23-.14.59.22.61-.06.87-2.51,1.39-3.12,3.46-.09.3-.17.47-.22.81-.29,1.13-.25,2.12-.22,3.26h-.22l-6.24-5.6,7.46-6.21c.28,0,1.93,2.66,2.12,3.06Z"/>
        <path class="cls-9" d="M49.02,22.92v.2c-.58.76-.09,1.68,0,2.44,0,1.12.16,2.17.22,3.26.09,1.63.12,3.25.22,4.89.09,1.44.09,2.83.22,4.28.08.83.12,1.61.22,2.44.07.64.13,1.2.22,1.83.07.51.12.91.22,1.43.08.42.13.79.22,1.22.06.3.15.54.22.81s.13.52.22.81c.07.23.14.4.22.61s.1.34.22.61c2.31,5.04,7.06,5.42,9.13,9.58.08.2.15.56.22.81.06.21.22.58.22.61.08.32.18.9.22,1.22.11.94-.16,2.17,0,3.06-.57,2.09-2.88,4.73-5.12,5.5-.17.06-.66.15-.89.2-.2.04-.97.19-1.11.2-.42.05-.91,0-1.34,0-.39-.03-1.2-.12-1.56-.2-.25-.06-.69-.13-.89-.2-.25-.09-.56-.16-.67-.2-.43-.17-2.76-1.74-2.67-2.14.28-.05.37-.25.45-.31.04-.03.42,0,.89-.2.16-.07.28-.12.45-.2,2.16-1.04,3.13-1.16,3.79-3.67.11-.26.15-.33.22-.61.25-.91.29-.91,0-1.83-.49-1.6-.85-1.54-2.45-2.04-.34-.15-.39-.13-.67-.2-.39-.07-.68-.16-1.11-.2-1.56-.26-2.45-.24-4.01,0-.43.04-.73.14-1.11.2-.3.08-.39-.02-.89.2-1.34.43-1.95.59-2.45,2.04-.31.91-.27,1.13,0,2.04.08.28.09.33.22.61.63,2.19,2.08,2.92,4.23,3.67.36.26.63.18.89.51.05.24-2.24,1.78-2.67,1.94-.1.03-.61.19-.67.2-.31.07-.8.15-1.11.2-.28.04-2.7.21-2.9.2-.22-.01-.45.03-.67,0-.05,0-.74-.16-.89-.2-3.25-.84-4.13-4.22-5.34-4.89v-.2c.21-.41-.22-.77-.22-.81-.09-.78-.1-2.49,0-3.26.02-.14.17-.83.22-1.02.01-.04.18-.5.22-.61,1.61-4.04,7.4-4.91,9.58-9.98.16-.33.15-.43.22-.61.1-.24.14-.38.22-.61.1-.31.15-.51.22-.81.07-.26.16-.52.22-.81.09-.36.16-.64.22-1.02.11-.58.15-1.06.22-1.63.09-.82.15-1.62.22-2.44.16-2.07.13-4.05.22-6.11.09-2.19.22-4.32.22-6.52.1-1.35.39-2.7.22-4.07v-.2c1.77-.1,4.01-.08,5.79,0Z"/>
        <g>
          <path class="cls-2" d="M48.8,1.32c.68.04,1.53.13,2.23.2.47.05,1.08.13,1.56.2.32.05.77.14,1.11.2s.78.13,1.11.2c.27.06.62.14.89.2.13.03.44.14.67.2.2.05.46.14.67.2s.46.14.67.2.47.13.67.2c.26.09.5.14.67.2,7.55,2.85,14.74,9.03,18.04,15.89.06.12.1.33.22.61.07.17.13.39.22.61.07.18.15.42.22.61s.16.42.22.61.17.44.22.61c-.02.23.1.66-.11.81-.25.03-.54-.05-.78,0-.34-.05-.72-.16-1.11-.2-1.67-.14-2.25.08-3.12-1.02-.02-.03-.02-.26-.22-.61-.07-.13-.15-.27-.22-.41-3.77-6.79-7.48-10.49-15.37-13.45-.08-.03-.22-.12-.45-.2-.25-.09-.43-.13-.67-.2s-.43-.13-.67-.2c-.22-.06-.42-.14-.67-.2-.15-.04-.37-.13-.67-.2-.32-.08-.56-.14-.89-.2-.29-.06-.56-.15-.89-.2-.37-.06-.71-.15-1.11-.2-.52-.06-1-.17-1.56-.2-2.4-.23-4.28-.23-6.68,0-.48.03-.92.16-1.34.2-.49.06-.85.11-1.34.2-.33.05-.61.15-.89.2-.33.06-.58.13-.89.2-.24.07-.44.13-.67.2s-.43.13-.67.2-.4.11-.67.2c-7.8,2.57-13.23,7.11-16.48,14.06-.17.33-.17.52-.22.61-.22.42-.19.79-.22.81-.22.17-2.59.36-3.12.41-.41.04-.75.15-1.11.2-.29-.02-.83.14-.89-.2.39-.06.19-.55.22-.81,0-.03.15-.3.22-.61,0-.03.16-.37.22-.61.02-.08.16-.41.22-.61.06-.17.15-.43.22-.61,0-.02.12-.15.22-.41,3.47-6.9,9.74-12.64,17.37-15.69.13-.05.36-.09.67-.2.18-.07.43-.12.67-.2.3-.1.42-.2.45-.2.21-.06.47-.15.67-.2.27-.07.6-.13.89-.2.24-.07.55-.17.67-.2.27-.07.62-.14.89-.2.34-.07.77-.14,1.11-.2s.78-.15,1.11-.2c.42-.06.93-.15,1.34-.2.69-.06,1.57-.18,2.23-.2,1.54-.06,3.36-.07,4.9,0Z"/>
          <path class="cls-3" d="M25.52,16.19c.58-.03,7.6,6.35,8.8,7.03-.29.09-1.15.92-1.22.92-.57,0-7.25-6.28-8.69-6.72-.09-.21,1.03-1.22,1.11-1.22Z"/>
          <path class="cls-3" d="M68.39,17.01c.01.07-.01.14,0,.2-1.35.52-8,6.94-8.57,6.93-.08,0-1.22-.84-1.22-.92,0-.53,7.83-5.91,8.57-7.03.18-.02,1.21.75,1.22.81Z"/>
          <path class="cls-2" d="M19.18,23.94s.7.16.89.2c1.34.5,2.83,1.76,3.12,3.06.11.49-.04,1.27,0,1.83-.06,4.29.6,17.21-.22,20.37-.25.98-2.35,2.33-3.34,2.65-.25.05-.85.2-.89.2-.59.05-2.64.1-3.12,0-.77-.17-2.29-1.74-2.45-2.44-.36-1.54-.36-21.69,0-23.23.21-.91,1.75-2.18,2.67-2.44.08-.02,1.16-.19,1.34-.2.53-.06,1.46-.05,2,0Z"/>
          <path class="cls-2" d="M75.74,23.94c.2.03,1.05.18,1.11.2,1.13.38,2.62,1.26,2.9,2.44.47,2.02.41,20.53,0,22.82-.03.15-.2.97-.22,1.02-.06.13-1.64,1.58-1.78,1.63-.04.02-.81.19-.89.2-.5.08-1.91.06-2.45,0-.08,0-.99-.17-1.11-.2-.1-.02-.59-.18-.67-.2-1.13-.44-2-1.55-2.67-2.44v-22.92c.18-.65,2.22-2.14,2.9-2.34.08-.02.97-.18,1.11-.2.47-.06,1.28-.03,1.78,0Z"/>
          <path class="cls-2" d="M82.2,27.6s.54.16.67.2c.61.21,2.89,2.08,3.12,2.65.04.11.22.58.22.61.29,1.37.28,12.84,0,14.26,0,.03-.17.46-.22.61-.3.85-2.44,2.79-3.34,3.06-.18.05-.63.21-.67.2-.2-.02-.58.08-.67-.1v-21.39c.11-.18.67-.1.89-.1Z"/>
          <path class="cls-2" d="M11.16,49.2c-.02-.35-.45-.15-.67-.2-.84-.21-3.05-2.09-3.34-2.85-.05-.12-.22-.58-.22-.61-.32-1.54-.29-12.44,0-14.06,0-.04.2-.76.22-.81.35-.92,2.16-2.26,3.12-2.65.54-.08.42-.2.45-.2.24.01.78-.08.89.1l-.45,21.29Z"/>
        </g>
        <g>
          <path class="cls-6" d="M43.23,22.92v.2c-.41,1.25-.22,2.77-.22,4.07-.16,2.2-.13,4.33-.22,6.52-.08,2-.05,4.14-.22,6.11-.06.77-.12,1.68-.22,2.44-.05.49-.14,1.14-.22,1.63-.05.3-.15.7-.22,1.02-.06.23-.15.58-.22.81-.08.27-.14.57-.22.81-.05.17-.15.43-.22.61-.08.2-.15.44-.22.61-2.28,4.53-7.8,5.44-9.58,9.98-.09.23-.15.35-.22.61-.1.39-.16.61-.22,1.02-.19,1.29-.26,1.96,0,3.26.05.26-.18.76.22.81v.2c-.07-.04-.36.04-.45,0-2.56-2.1-7.22-2.72-8.69-6.52-.05-.14-.18-.63-.22-.81-.04-.18-.22-.97-.22-1.02-.36-4.13,1.84-2.18,2.67-5.3.12-.27.14-.31.22-.61,1.21-4.51-.44-11.8.22-16.61,2.04-1.76,3.93-3.79,6.12-5.4.69-.5,4.38-3.08,4.79-3.26.13-.06.56.01,1.11-.2.27-.07.59-.13.89-.2.27-.07.62-.14.89-.2.32-.07.78-.15,1.11-.2.4-.07.94-.16,1.34-.2.56-.05,1.25-.17,1.78-.2.15,0,.3,0,.45,0Z"/>
          <path class="cls-4" d="M33.65,44.31c1.25.35,2.12,2.33,1.78,3.46-.06.2-1.55,1.57-1.78,1.63-.16.04-1.61.04-1.78,0-.46-.12-1.92-1.64-2-2.04-.05-.2-.04-.81,0-1.02.09-.45,1.48-1.91,2-2.04.18-.04,1.62-.04,1.78,0Z"/>
        </g>
        <g>
          <path class="cls-6" d="M50.13,22.92c.45.03,1.07.15,1.56.2.38.04.94.14,1.34.2.32.05.8.13,1.11.2.27.06.64.13.89.2.36.1.69.14.89.2.4.13.79.16.89.2.8.33,1.79,1.34,2.67,1.83.59.33.43-.01.45,0,2.96,1.79,5.41,4.26,8.24,6.21.55,5.09-.84,11.7.22,16.61.05.42.12.63.22,1.02.8,3.04,3.14,1.67,2.67,5.7,0,.07-.19.9-.22,1.02-.94,3.21-6.53,5.63-9.46,7.13-.51.05-.28-.34-.33-.61.33-1.23.15-1.86,0-3.06-.05-.46-.13-.78-.22-1.22-.07-.36-.17-.46-.22-.61-.09-.26,0-.36-.22-.81-1.81-4.44-7.05-5.15-9.13-9.58-.06-.12-.11-.35-.22-.61-.07-.17-.16-.43-.22-.61-.08-.22-.15-.56-.22-.81s-.16-.56-.22-.81c-.09-.36-.14-.83-.22-1.22-.08-.45-.16-.98-.22-1.43-.08-.59-.15-1.24-.22-1.83-.08-.8-.15-1.65-.22-2.44-.13-1.4-.13-2.87-.22-4.28-.1-1.62-.14-3.27-.22-4.89-.07-1.13-.08-2.13-.22-3.26v-2.65c.37.02.75-.03,1.11,0Z"/>
          <path class="cls-4" d="M61.04,44.31c.32.08,1.69,1.34,1.78,1.63.05.16.05,1.68,0,1.83-.11.34-1.64,1.55-2,1.63-.2.04-1.38.05-1.56,0-.6-.15-1.91-1.66-2-2.24-.03-.21-.04-.61,0-.81.08-.45,1.49-1.91,2-2.04.18-.05,1.61-.05,1.78,0Z"/>
        </g>
        <path class="cls-6" d="M71.73,66.52c.06.13.1.34.22.61.09.2.21.39.22.41.08.18.14.4.22.61.08.19.15.41.22.61s.15.42.22.61.16.42.22.61c.07.2.17.44.22.61.08.25.14.55.22.81.07.25.16.56.22.81s.16.56.22.81c.07.27.17.57.22.81.07.32.16.7.22,1.02.07.34.16.69.22,1.02.07.36.17.87.22,1.22-.04.25.07.81,0,.92-.1.15-.46.02-.89.31-.21.14-.84.6-.89.61-1.06.23-2.12-.13-3.34.2-2.15.59-.81,1.43-1.34,2.24-.04.06-.53-.18-.89.2-.39.41-.41.59-.45.61-.28.19-.41.6-.45.61-.87.3-2.97-.06-4.23.2-.48.1-.9.09-1.34.41v-.2c.13-.4-.21-.39-.22-.41-.63-3.23-4.73-5.65-7.79-6.72-.26-.09-.42-.13-.67-.2-.35-.1-.55-.13-.89-.2-.3-.07-.55-.15-.89-.2-.38-.06-.69-.16-1.11-.2-1.62-.15-2.61-.15-4.23,0-.5.05-.86.12-1.34.2-.34.06-.58.13-.89.2-.27.06-.44.14-.67.2-.25.07-.41.11-.67.2-3.74,1.32-6.13,3.02-7.57,6.52-.1.24-.15.36-.22.61-.04.12-.15.25-.22.61-.17.31-.46.64-.45,1.02-.07-.02-.2.03-.22,0-.44-.45-.5-1.12-1.56-.31-.11,8.45.15,16.92,0,25.37-.15,0-.3,0-.45,0-.02-.35-.45-.15-.67-.2-.15-.04-.39-.13-.67-.2-.32-.08-.56-.14-.89-.2-.23-.04-.44-.16-.89-.2s-.84-.18-1.34-.2c-1.43-.16-2.16-.11-3.56,0-.52.04-.84.12-1.34.2-.36.06-.54.11-.89.2-.27.08-.39.1-.67.2-.15.06-.53-.06-.67,0-.06.03-.16-.03-.22,0,.04-.23-.21-.19-.22-.2.25-8.88-.33-17.82,0-26.69.08-1.46.09-3.04.22-4.48.06-.64.14-1.4.22-2.04.05-.45.16-.96.22-1.43.07-.39.15-.83.22-1.22.06-.31.15-.7.22-1.02.05-.23.16-.55.22-.81s.15-.56.22-.81.15-.56.22-.81c.04-.12.15-.4.22-.61.06-.18.15-.42.22-.61s.15-.42.22-.61.15-.43.22-.61c.16-.39.32-.95.45-1.22.14-.3.36-.86.45-1.02.2-.36,1.92-3.03,2.12-3.06,1.17,1.24,3.96,1.8,5.12,2.65,2.52,1.86,1.75,3.54,6.12,4.89.46.16.63.13.89.2.37.11.53.13.89.2.56.09.97.17,1.56.2.65.02.87.05,1.56,0,.54-.04.81-.09,1.34-.2.3-.07.42-.12.67-.2,1.19-.35,3.25-1.63,3.45-1.63.17,0,1.96,1.13,3.01,1.43.02,0,.12.1.45.2.35.1.54.13.89.2.41.08.66.16,1.11.2.99.09,1.25.08,2.23,0,.53-.03.84-.11,1.34-.2.35-.07.55-.11.89-.2.27-.08.36-.08.67-.2,4.45-1.5,3.44-3.05,5.9-4.89,1.33-.99,4.69-1.77,6.01-3.26.39.04,2.7,4.26,3.01,4.89Z"/>
        <path class="cls-3" d="M17.39,108.69c-.67-.1-.54.39-.67.61-.83-.03-.59-.75-1.11-.81-.02-.06.02-.14,0-.2.35.02.17-.33.22-.41.15-.2.41,0,0-.41-.82-.84-1.48-.15-2.12-.41-1.22-.49-6.06-6.84-6.57-8.15-.08-.21-.15-.57-.22-.81-.09-.32-.16-.87-.22-1.22-.1-.98-.1-2.69,0-3.67.04-.33.15-.89.22-1.22.05-.23.15-.58.22-.81.04-.13.16-.45.22-.61,1.63-3.64,6.38-7.32,10.02-9.27v27.4Z"/>
        <g>
          <path class="cls-9" d="M49.46,75.28c.12.01.82.16,1.11.2.14.02.64.15.89.2s.66.13.89.2c.2.06.49.14.67.2,3.65,1.31,5.83,3.8,7.79,6.72.03.17-.1.42.22.41v.2c-.65.48-.94,1.31-1.11,2.04-.46,1.97-.17,4.1-.22,6.11-.12.03-.37.15-.45.2-.54.4-.32.45-.45.61-.12.1-.18.17-.22.2-.33.27-.59.55-.89.81-.08.07-.16.15-.22.2-.1.08-.21.19-.22.2-.08.06-.58-.15-.45.41-8.91,5.67-22.6,2.05-23.16-8.76-.01-.2.08-.41-.22-.41,0-.07-.01-.14,0-.2.05-.31.15-.69.22-1.02.18-.34.16-.49.22-.61.15-.31.18-.53.22-.61,1.45-2.64,4.54-5.43,7.57-6.52.18-.06.47-.15.67-.2s.59-.18.67-.2c.23-.05.75-.18.89-.2.38-.06.99-.17,1.34-.2,1.11-.1,3.12-.1,4.23,0Z"/>
          <path class="cls-9" d="M33.43,84.86c-.01.06,0,.14,0,.2,0,.2-.08.41.22.41.56,10.81,14.25,14.43,23.16,8.76.27-.17.38-.36.45-.41.17-.12.21-.19.22-.2.14-.1.19-.17.22-.2.5-.41.37-.22.89-.81,0-.01.08-.01.22-.2.23-.18.57-.19.45-.61.08-.06.33-.18.45-.2-.21,7.97.15,15.97,0,23.94l-26.39.31-.33-30.97s.15-.02.22,0h.22Z"/>
          <path class="cls-7" d="M15.61,108.49c.29.93.89,1.05.89,1.12,0,.23-2.22,1.6-2.9,3.57-.12.34-.16.43-.22.81-.17.92-.29,1.09,0,2.04.08.27.09.33.22.61.31,1.04,1.01,2.23,2.23,2.44v.2c-1.78-.03-3.57.04-5.34,0-1.03-.08-2.38-.04-3.34-.2-.18-.03-.57-.14-.89-.2-1.24-.36-4.37-2.28-4.68-3.46-.07-.26-.04-1.12,0-1.43,0-.04.19-.73.22-.81.57-1.56,3.07-3.27,4.68-3.87.25-.08.6-.13.89-.2.25-.07.64-.15.89-.2.41-.08.91-.13,1.34-.2.45-.05,1.17-.19,1.56-.2,1.23-.05,3.3-.14,4.45,0Z"/>
          <path class="cls-9" d="M26.52,108.9c.38.04.94.14,1.34.2.18.03.65.15.89.2.29.07.6.14.89.2.1.02.39.14.67.2.18.04.13.24.67.2.15,0,.3,0,.45,0-.03,1.75.37,6.2,0,7.54-.19.69-1.14,1.16-1.78,1.43-.07.03-.51.16-.67.2-.3.08-.98.15-1.34.2-1.8.14-5.84.2-7.57,0-.16-.02-.91-.16-1.11-.2-.05-.01-.57-.17-.67-.2-.75-.27-3.06-2.02-3.34-2.65-.02-.04-.22-.77-.22-.81-.03-.19-.01-.42,0-.61,0-.05.2-.95.22-1.02.33-.94,3.34-3.86,4.23-4.28.06-.03.16.03.22,0,.19.56.64,0,.67,0,.21-.06.6-.19.67-.2.25-.06.74-.18.89-.2.38-.06.99-.17,1.34-.2,1.01-.09,2.52-.05,3.56,0Z"/>
          <g>
            <g>
              <path class="cls-1" d="M79.75,81.39c-.15.08-3.31.09-3.45,0-.22-.14-.17-1.47.11-1.63.15-.08,3.3-.08,3.45,0,.08.04-.23,1.22-.11,1.63Z"/>
              <path class="cls-5" d="M72.85,80.17c1.05.18,2.37-.11,2.23,1.02-.02.18-.88.86-1.11,1.02-.03.02-.27,0-.67.2-.03.02-.46.13-.67.2-.59.11-1.05.41-1.11.41-1.23,0-2.06-1.04-2-2.04,0-.13,0-.27,0-.41.25.06.42-.4.45-.41.41-.11,2.31-.03,2.9,0Z"/>
              <path class="cls-5" d="M85.99,81.19c0,.06-.4,1.17-.45,1.22-.02.03-.42.4-.45.41-.15.05-.86.02-1.11,0-.04,0-.42-.14-.67-.2-.1-.03-.64-.19-.67-.2-.17-.07-1.75-1.13-1.78-1.22-.49-1.47,5.19-1.69,5.12,0Z"/>
              <path class="cls-2" d="M79.75,81.6c.36,1.08,2.16,1.57,3.12,1.83.37.11.44.16.89.2.88.11.86.18,1.78,0,.84-.17,1.45-1.01,2.45-.51l-.11,4.79h-19.15l-.11-4.79c.81.25,1.08.54,2,.71.84.16.59.04,1.11,0,.51-.01.78-.19.89-.2.3-.07.38-.1.67-.2.18-.07.31-.05.67-.2.89-.32,1.9-.38,2.23-1.43.31-.1.21-.2.22-.2.34-.07,3-.07,3.34,0Z"/>
            </g>
            <path class="cls-1" d="M66.83,84.04c.26.15.31,1.83.22,1.94-.08.1-2.03.15-2.67.31-.91.22-1.31.19-1.78,1.12l.22,31.48,1,1.22h20.27c.5.29.27.64.33,1.02-.04.33-.48,1.79-.22,2.04-4.5,0-18.11.78-21.49,0-.56-.13-1.07-.85-1.45-1.22v-36.06c.49-1.04,1.2-1.62,2.45-1.83.32-.05,2.98-.07,3.12,0Z"/>
            <path class="cls-1" d="M95.34,84.25c.31.08,1.47,1.37,1.56,1.73.23.95.43,14.72,0,15.38-.02.03-.19-.03-.22,0-.04.01-.28-.44-.78-.2-.64.3-1.66,2.14-1.89,2.85h-.45v-.2c.59-3.31.07-6.67,0-9.98-.01-.54.02-1.09,0-1.63-.05-1.64.47-2.92,0-4.69-.16-.61-.13-1.23-1-1.63-.15-.07-.57.06-.78,0-1.48-.44-2.74.38-2.12-1.63,1.47.25,4.41-.33,5.68,0Z"/>
            <g>
              <path class="cls-9" d="M91.55,86.89s.54.42.67.51v18.54c-1.1,1.41-2.07,2.89-3.34,4.18v-.2l-21.49-.2c-.85.74-.85,1.01.11,1.43,2.66,1.16,16.73-.3,20.49,0,.07-.02.16.02.22,0-.02.13.04.35,0,.41-.09.15-1.03.82-1.34,1.22-.27-.37-1.11-.19-1.56-.2-.88-.11-1.06,0-1.78,0-.59,0-1.19,0-1.78,0-.01,0-.11-.43-.22,0-.22,0-.45,0-.67,0-2.42-.06-11.68-.73-13.36,0-.96.42-.96.69-.11,1.43h18.6c-.67,1.07-.93,1.91-1.34,3.06-.23.66-.2,1.18-.33,1.83l-20.38-.51c.51-3.33-.93-30.55.67-31.07.12-.04,2.02-.04,2.12,0,1.1.45-.89,1.73,1.45,2.04,1,.37,20.07.54,20.93,0,1.06-.66-.59-3.41,2.45-2.44Z"/>
              <g>
                <path class="cls-2" d="M82.87,92.19c-.22,0-.45,0-.67,0-.06,0-.14,0-.22,0-.15,0-.3,0-.45,0-1.74.02-13.49.04-14.14-.2-.45-.17-.47-.77,0-1.02h21.6c2.82,1.06-5.74,1.22-6.12,1.22Z"/>
                <path class="cls-2" d="M88.88,94.84h-21.38c-.52-.19-.51-.97.11-1.22h21.38l.33.92-.45.31Z"/>
                <path class="cls-2" d="M88.66,96.27l.67.51-.33.71h-21.38c-.7-.53-.66-.6-.11-1.22h21.16Z"/>
                <path class="cls-2" d="M67.39,99.12h21.6c.24.16.46.43.33.71-.41.93-19.48-.08-21.94.31v-1.02Z"/>
                <path class="cls-2" d="M89.1,101.77c.33.17.28.93,0,1.22h-21.6c-.52-.19-.51-.97.11-1.22,2.96.56,20.11-.73,21.49,0Z"/>
                <path class="cls-2" d="M87.1,104.42c.73.08,3.05.12,1.89,1.22h-21.38c-.7-.53-.66-.6-.11-1.22,6.17.49,13.58-.66,19.6,0Z"/>
                <path class="cls-2" d="M88.44,108.49c-2.24.54-13.81.08-16.93,0-.32-.03-6.64-.28-4.12-1.22h21.6c.79.53.07,1.07-.56,1.22Z"/>
              </g>
            </g>
            <path class="cls-2" d="M88.88,109.92v.2c-.08.08-.29.89-.67,1.02-.06.02-.15-.02-.22,0h-20.49c-.55-.62-.59-.69.11-1.22h21.27Z"/>
            <path class="cls-2" d="M80.86,112.57c.23,0,.48,0,.67,0,.07,0,.15,0,.22,0,.64.02,1.17,0,1.78,0,.59,0,1.19-.02,1.78,0,.37.05,1.01.38,1.56.2-.25.32-.7.91-.89,1.22l-18.37-.2c-.62-.25-.63-1.03-.11-1.22.78-.28,11.51,0,13.36,0Z"/>
            <g>
              <path class="cls-8" d="M97.34,102.38s.61.18.67.2c.3.12,2.43,2.38,2.45,2.55.09.74-8.07,10.96-9.24,12.33l-3.9-3.16,8.69-11.41c.55-.48.49-.55,1.34-.51Z"/>
              <path class="cls-1" d="M97.12,112.57c.01,2.24.15,5.88,0,7.95-.01.2.03.41,0,.61-.06.45-.91,1.91-1.34,2.04-.73.21-8.44.17-10.02.2-.56,0-1.36-.2-1.56-.2.45.18.92-.16,1.11-.2.32-.06.62-.19.67-.2.55-.06.42-.2.45-.2.44-.08.55,0,1.11-.2.28-.09.94.09,1.22,0,.91-.29,3.15-2.64,3.23-3.67h.22v3.57c2.39.73.99-4.07,1.34-5.5.06-.26,2.81-4.22,3.12-4.58.01-.02.38-.26.45-.1,0,.17,0,.34,0,.51Z"/>
              <path class="cls-9" d="M89.55,117.46c.27.3.98.82.78,1.22-.41-.52-.86-.72-1.45-1.02-.86-.66-1.56-1.3-2.67-1.63v-.2c.32-.56,2.89,1.3,3.34,1.63Z"/>
              <path class="cls-9" d="M87.55,121.33c-.06.03-.55.17-.67.2-.37.1-.94-.21-1.11.41h-.22c-.01-.47.02-.95,0-1.43.06-.84.13-1.81.22-2.65v-.41l4.23,2.14c.05.19-2.11,1.59-2.45,1.73Z"/>
            </g>
          </g>
        </g>
      </g>
    </g>
  </g>
</svg>